<?xml version="1.0" encoding="utf-8"?>
<!-- Generator: Adobe Illustrator 16.0.0, SVG Export Plug-In . SVG Version: 6.00 Build 0)  -->
<!DOCTYPE svg PUBLIC "-//W3C//DTD SVG 1.1//EN" "http://www.w3.org/Graphics/SVG/1.1/DTD/svg11.dtd">
<svg version="1.1" id="Layer_1" xmlns="http://www.w3.org/2000/svg" xmlns:xlink="http://www.w3.org/1999/xlink" x="0px" y="0px"
	 width="1475px" height="460px" viewBox="0 0 1475 460" enable-background="new 0 0 1475 460" xml:space="preserve">
<path fill="#4A0203" d="M1164.42,11.71c9.13-1.85,18.25-4.94,25.86-10.44c-1.71,5.68-5.03,10.61-8.73,15.16
	c-3.67,4.05-1.46,10.19-4.56,14.5c-2.971,4.79-5.82,9.65-8.4,14.65c-2.57,4.43-4.66,9.73-2.9,14.85
	c1.881,3.63,5.051,6.88,9.131,7.86c4.25,0.43,8.899-0.32,12.39-2.93c3.12-3.24,6.16-6.6,8.8-10.25
	c5.73-8.67,12.32-17.14,14.75-27.47c2.061,7.82-2.58,14.8-4.24,22.13c1.2-0.93,2.511-1.88,3.2-3.31c2.69-4.78,4.88-9.85,7.811-14.5
	c1.189,6.04-1.03,11.97-1.97,17.89c-4.371,6.61-10.091,12.82-11.5,20.88c-0.36-0.02-1.08-0.06-1.431-0.08
	c-0.62,1.63-0.85,3.56-2.55,4.45c-4.67,3.43-6.9,9.11-11.22,12.85c-7.32,4.86-14.921,9.33-22.91,13
	c-11.521,5.32-21.47,13.32-32.07,20.16c1.49,1.46,3,2.9,4.5,4.37c1.95-0.25,3.91-0.55,5.88-0.85c-0.07-1.36-0.109-2.72-0.14-4.07
	c2.91-0.19,5.96,0,8.74-1.13c0.989-2.41,1.55-4.97,2.279-7.46c1.61,6.3,6.171,10.99,10.07,15.95c0.57-0.75,1.15-1.5,1.74-2.25
	c1.3-0.16,2.63-0.33,3.96-0.5c1.64-2.2,3.34-4.37,5.229-6.38c2.181-0.03,4.48-0.03,6.421-1.21c3.029-1.75,6.649-1.09,9.989-1.26
	c7.05-6.55,14.39-12.79,21.45-19.33c6.23-6.8,12.4-13.64,18.6-20.47c7.65-7.78,13.58-17.01,20.271-25.58
	c4.7-5.9,8.69-12.4,14.069-17.73c-2.039,15.61-14.319,27.07-18.569,41.89c7.12-5.17,11.79-12.72,17.43-19.31
	c4.95-5.87,9.23-12.36,14.87-17.63c-2.32,6.74-5.15,13.28-7.66,19.94c-2.68,8.15-8.76,14.45-13.279,21.57
	c-5.7,7.64-10.311,16.19-17.25,22.82c-7.301,7.33-14.08,15.15-21.391,22.47c-4.21,4.52-8.67,8.83-12.59,13.6
	c-0.7,2.35,0.49,4.93,0.32,7.37c-1.87,2.47-4.78,4.1-6.01,7.04c-1.761,3.83-5.921,5.58-8.961,8.23c6.61,3.18,14.09,2.68,21.2,2.25
	c4.49-1.81,8.601-4.45,12.99-6.52c3.7-1.68,6.94-4.19,9.87-6.97c0.7-0.83,1.93-1.54,1.84-2.8c0.35-7.73,0.2-15.48,0.51-23.21
	c5.61,4.24,8.83,10.55,12.19,16.55c0.79,0,2.38,0.01,3.17,0.01c-1.34,4.5-0.49,10.31-4.54,13.521c-3.72,3.4-7.52,6.88-9.63,11.57
	c-5.45,8.87-9.58,18.42-13.91,27.87c-1.66-0.04-3.3-0.08-4.93-0.11c-2.79-2.03-5.61-4-8.37-6.04c-5.471,0.25-10.91,0.94-16.311,1.65
	c-5.33,4.3-9.31,10.07-14.41,14.66c-4.5-1.81-9.42-1.4-14.119-0.94c-0.86,3.35-1.511,6.75-2.051,10.17
	c1.021,0.62,2.03,1.29,3.03,2.01c-0.83,3.01-2.979,5.4-4.16,8.25c-0.479,4.23-0.08,8.51,0.23,12.739
	c2.11-0.209,4.239-0.449,6.38-0.719c0.01,0.829,0.03,2.489,0.04,3.319c1.3,0,2.62-0.01,3.96-0.021c4.35-4.069,9.07-7.939,15.1-9.1
	c1.381-4.63,6.71-5.48,9.431-8.91c3.95-7.75,6.71-16.11,11.51-23.43c1.68,7.43,7.26,12.88,11.14,19.17c0.38,0.1,1.13,0.3,1.51,0.41
	c2.9-3.36,5.95-6.59,8.74-10.04c2.93-4.1,5.38-8.52,8.04-12.8c1.21,3.47,2,7.1,3.47,10.479c3.2,4.3,5.57,9.26,10.061,12.46
	c1.35-0.31,2.72-0.62,4.1-0.95c2.01-0.19,4.04-0.37,6.07-0.55c0.02,0.88,0.05,2.62,0.07,3.5c4.899,1.11,9.6-3.05,14.229-0.32
	c5.61-0.08,10.851-2.03,15.47-5.14c2.03-3.97,3.7-8.27,6.931-11.46c1.76-2.06,4.54-2.46,6.96-3.35c0.21-4.16,0.45-8.31,0.79-12.46
	c2.88,1.92,5.97,3.59,8.53,5.95c2.64,2.67,4.81,5.75,7.209,8.64c4.2,0.35,7.761-2.05,11.431-3.71c6.819-3.18,13.86-5.93,20.36-9.76
	c4.729-2.34,9.08-6.25,14.699-5.94c1.881-3.43,3.15-7.15,4.03-10.96c3.31,3.44,6.36,7.78,6.13,12.79
	c-0.37,4.45,2.13,8.23,3.84,12.13c1.69,3.42,1.301,7.34,1.66,11.03c0.16,4.52,2.48,8.53,3.88,12.74
	c2.391,7.27,7.601,13.06,11.42,19.59c2.98,5.409,8.021,9.11,12.351,13.37c1.109-4.26,2.93-8.391,3.46-12.78
	c-0.72-6.05-2.29-11.97-2.99-18.02c5.15,0.8,8.78,4.71,12.45,8.03c2.79,2.9,5.62,5.78,8.06,9c1.88,3.3,2.851,7.03,4.24,10.56
	c1.51-0.02,3.04-0.039,4.58-0.06c-0.07,2.65-0.13,5.29-0.18,7.94c1.609,0,3.22,0.01,4.87,0.02c-0.11,2.29-0.181,4.59-0.23,6.891
	c0.65,0.01,1.95,0.029,2.6,0.039c0.311,8.23-1.46,16.69,1.24,24.681c3.25,11.28,4.98,22.899,7.12,34.42
	c3.83,22.3,8.96,44.36,13.11,66.59c0.279,8.63-0.391,17.28-0.51,25.91c-0.561,14.99-0.601,29.99-1.49,44.96h-1.471
	c-1.96-11.63-3.949-23.26-5.91-34.89c-0.649-4.41-2.68-8.431-4.279-12.54c-8.87-22.211-17.84-44.391-26.41-66.721
	c-1.55-3.74-2.6-7.789-5.11-11.029c-9.14-11.51-18.46-22.881-27.489-34.48c-0.04-3.73,0.289-7.49-0.19-11.199
	c-1.43-4.051-3.28-8.141-6.39-11.19c-2.15-2.28-4.57-4.47-5.58-7.53c-3.01-8.09-5.83-16.24-8.86-24.32
	c-0.6,2.301-1.13,4.631-1.42,6.99c0.76,0.07,2.28,0.2,3.04,0.27c-1.07,5-2.28,9.971-3.189,15c0.64-0.01,1.92-0.029,2.56-0.039
	c-0.271,28.89-0.75,57.779-1.07,86.67c-0.36,7.65,0.48,15.42-1.26,22.949c-5.26,27.41-10.18,54.9-16.58,82.061h-0.39
	c-3.24-27.42-7.58-54.7-11.5-82.029c-0.83-7.561-4.03-14.551-6.2-21.781c-2.4-7.979-6.07-15.689-6.63-24.109
	c-0.54-8.71-3.74-16.87-6.021-25.2c-2.18-7.739-4.689-15.399-6.71-23.18c-0.479-6.761,2.561-13.46,1.021-20.24
	c-0.94-4.11-0.44-8.979-3.601-12.229c-2.43-2.91-4.949-5.75-7.31-8.711c-1.58,0.011-3.14,0.021-4.69,0.03
	c-3.67,2.56-8.18,4.48-10.359,8.61c-4.11,7.31-8.32,14.56-12.45,21.859c-1.56,2.36-0.431,5.24-0.31,7.83
	c-2.261,2.99-3.75,6.601-6.841,8.881c-2.2,1.35-1.819,4.1-2.08,6.31c-2.819,1.569-5.569,3.271-8.359,4.87
	c-0.38,1.59-0.73,3.18-1.04,4.779c-6.41,0.951-12.9,1.301-19.33,2.031c-0.271,0.819-0.8,2.459-1.061,3.27
	c-2.63-1.04-5.22-2.16-7.819-3.221c-3.511-0.799-6.97-1.93-10.55-2.289c-0.37,0.619-1.101,1.879-1.461,2.51
	c-1.709-0.79-3.39-1.58-5.06-2.4c-3.96,10.49-8.3,20.83-12.39,31.26c-1.44,3.45-0.96,7.291-1.931,10.84
	c-1.489,2.73-3.97,4.9-4.84,7.961c-8.63,31.66-17.03,63.39-25.819,95c-3.511-8.45-2.17-17.7-2.641-26.591
	c-0.8-25.72-0.76-51.46,0.57-77.159c0.12-12.43,3.46-24.51,4.62-36.84c-0.311,0.299-0.94,0.89-1.25,1.189
	c-2.72,1.27-5.44,2.529-8.19,3.71c0.78,1.75,1.6,3.479,2.44,5.21c-6.94,2.561-13.91,5.061-20.87,7.57
	c-0.13,2.439-0.25,4.88-0.36,7.32c-0.979,0.959-1.939,1.93-2.89,2.89c-0.86,7.63-1.03,15.329-2.16,22.93
	c-2.45,13.08-4.93,26.149-7.38,39.23c-1.17,7.04-4.13,13.58-6.28,20.34c-4.15,12.03-8.24,24.08-12.4,36.109
	c-0.92-0.02-1.819-0.029-2.709-0.029c-0.67-9.84-0.141-19.721-0.69-29.55c-0.63-5.641-1.88-11.19-2.93-16.761
	c-1.171-7.34-1.471-14.8-0.95-22.21c0.89-10.82-2.1-21.4-4.49-31.84c-1.79-4.57-1.7-9.47-1.52-14.279
	c-3.801-0.851-7.54-1.98-11.17-3.381c-1.601,1.49-3.2,2.98-4.78,4.49c-7.32-7.7-15.08-16.02-25.49-19.311
	c-7.17,5.83-13.979,12.121-21.649,17.32c-6.2,4.221-11.73,9.721-19.091,11.86c3.341-4.649,7.66-8.46,12.101-12.03
	c7.21-5.67,13.47-12.38,19.979-18.811c0-3.699-0.38-7.379-1.2-10.989c-7.819,5.5-16.76,9.069-25.319,13.19
	c-2.97,1.72-6.44,1.43-9.7,1.129c10.5-6.469,21.81-11.699,31.5-19.42c0.39-1.1,0.81-2.199,1.24-3.289
	c-1.681-3.211-3.431-6.631-6.9-8.211c-6.56,1.601-13.15,3.031-19.609,4.98c-4.16,1.301-8.49,1.99-12.841,1.92
	c-1.029-0.34-3.1-1.029-4.13-1.369c9.271-3.261,18.57-6.461,28.04-9.121c3.24-1.09,6.351-2.52,9.5-3.859
	c1.01-2.141,1.94-4.311,2.84-6.49c-6.45-0.08-12.79,1.279-19.229,1.2c-6.19-0.07-12.721,1.1-18.46-1.851
	c6.09-1.51,12.37-1.859,18.58-2.649c6.71-1.101,13.39-2.48,20.18-3.07c0.37-1.13,0.76-2.25,1.149-3.37
	c-3.189-1.43-6.649-2.6-9.079-5.229c-5.08-5.08-12.23-8.341-19.48-7.851c-2.85,0.961-4.479,3.73-6.47,5.771
	c-3.18,3.819-6.82,7.35-9.4,11.62c-1.21,5.26-0.83,10.88-2.81,15.979c-1.04,1.88-2.53,3.46-3.57,5.32
	c-1.29,3.12-1.11,6.63-2.3,9.771c-1.73,3.859-4.35,7.239-6.05,11.119c-4.07,9.61-6.891,19.77-12.101,28.87
	c-4.52,10.431-9.14,20.88-11.79,31.97c-2.659,9.36-5.359,18.69-8,28.051c-1.72,7.52-2.609,15.199-3.949,22.79
	c-1.021,5.46-0.61,11.119-2.221,16.47c-1.8-4.25-2.069-8.87-2.62-13.38c-1.29-11.69-3.6-23.28-3.83-35.08
	c-0.319-11.97-1.97-23.94-0.949-35.91c0.92-15.7,1.72-31.41,2.93-47.09c0.51-6.08,2.55-12.03,2.02-18.171
	c-0.699-8.449-0.96-16.989-3.119-25.229c4.029-3.17,5.71-8.11,9.33-11.61c1.43-1.84,0.619-4.77,2.43-6.39
	c3.399-3.28,7.52-6.11,9.45-10.6c2.37-5.29,5.17-10.38,7.25-15.8c-13.15-8.14-26.19-16.46-39.341-24.58
	c-6.189-3.69-11.22-8.92-17.029-13.11c-3.99-2.78-8.83-3.8-13.181-5.81c-1.25-1.53-1.939-3.44-3.25-4.92
	c-3.159-3.26-7.319-5.34-10.399-8.68c-6.67-7.14-12.26-15.18-18.19-22.92c-2.819-3.82-6.229-7.36-7.649-12
	c1.91,0.5,3.62,1.54,5.13,2.79c5.109,4.15,10.109,8.46,15.359,12.44c8.061,5.7,16.54,10.81,24.58,16.55c1.62,1,2.03,2.93,2.71,4.59
	c1.601-0.01,3.19-0.01,4.811-0.02c0.01,0.71,0.03,2.11,0.05,2.82c2.24,0.03,4.6,0.14,6.54,1.46c8.58,4.96,17.62,9.05,26.45,13.54
	c4.89,2.48,10.22,3.86,15.3,5.86c8.61,2.93,17.11,6.16,25.71,9.12c10.74,3.28,21.58,6.21,32.33,9.46c0.12,1.13,0.25,2.27,0.39,3.41
	c2-1.16,4.11-2.52,6.54-1.76c5.57,1.24,11.55,2.13,16.32,5.48c2.94,2.89,5.1,6.45,7.64,9.68c0.62-1.96,3.181-4.48,0.521-5.9
	c-9.96-8.42-19.87-16.92-29.771-25.4c-1.899,1.11-3.46,2.68-5.06,4.14c-1.97,0.11-3.94,0.21-5.89,0.32
	c1.289-2.87,2.529-5.76,3.75-8.65c-0.431-1.39-0.841-2.77-1.25-4.16c-1.41-0.56-2.78-1.13-4.16-1.7c-0.221-3.06-0.38-6.32-2.74-8.58
	c-7-8.22-12.74-17.38-18.36-26.57c-2.41-5.33-5.029-10.67-6.3-16.41c4.1,5.08,8,10.36,12.75,14.89c4.34,5.05,9.6,9.229,13.76,14.43
	c2.551-4.34,0.23-9.28,1.46-13.88c0.86-3.16,0.73-6.45,0.67-9.69c0.811,0.43,1.641,0.86,2.48,1.29c0.61-1.88,0.41-4.33,2.19-5.63
	c2.449-1.87,3.67-4.72,4.88-7.47c1.1,0.01,2.22,0.01,3.359,0.02c0.97-1.74,1.97-3.47,2.92-5.23c-3.579-2.85-6.899-6-10.189-9.17
	c-5.74-6.07-11.54-12.89-12.34-21.57c6.63,3.19,13.26,6.56,20.35,8.62c7.97,0.39,15.96,0.25,23.95,0.39
	c1.5-2.43,2.85-4.96,3.88-7.63c2.16-1.64,1.96-5.01,4.66-6.11c0.09-1.94,0.51-3.92,0.12-5.85c-1.721-3.06-5.301-5.22-5.54-8.96
	c-0.55-4.42-1.04-8.93,0.02-13.31c1.88,2.2,3.681,4.47,5.46,6.76c5.59,0.29,11.311,0.68,16.68-1.28c1.811-1.9,3.631-3.79,5.471-5.68
	c0.7,0.03,2.1,0.08,2.81,0.1c1.67-1.76,3.37-3.51,5.03-5.31c-2.55-4.42-3.14-9.45-2.7-14.46c3.28,2.23,7.09,4.54,11.24,3.53
	c6.01-1.26,9.12-7.03,13.38-10.85c0.59-0.08,1.77-0.24,2.35-0.32c3-3.01,6.15-5.84,9.17-8.83c1.341-0.03,2.7-0.07,4.07-0.1
	C1142.62,18,1153.5,14.1,1164.42,11.71z"/>
<path fill="#FEFEFE" d="M1153.66,39.22c4.189,7.05,6.229,15.49,4.84,23.65c-1.59,4.89-4.02,9.49-7.28,13.47
	c-0.569,0.12-1.7,0.35-2.27,0.47c-2.08,1.16-4.261,0.67-6.181-0.5c-2.85-2.61-3.529-6.71-4.18-10.33
	c2.021-2.82,3.86-5.93,6.721-8.01c3.239-2.1,4.85-5.77,6.89-8.9C1153.4,45.96,1153.2,42.49,1153.66,39.22z"/>
<path fill="#FEFEFE" d="M1128.99,54.12c0.99,5.26,2.51,10.47,2.5,15.86c-0.09,3.28,0.779,6.78-0.66,9.88
	c-1.13,2.79-2.391,5.52-3.52,8.3c-1.971,1.4-3.921,2.81-5.851,4.24c-2.16-0.05-4.3-0.08-6.43-0.18c-1.25-0.35-2.49-0.67-3.73-0.939
	c-2.239-2.55-2.89-5.97-3.14-9.24c1.91-4.44,6.109-7.17,9.67-10.17c2.82-3.3,6.26-6.29,7.89-10.41
	C1126.811,59.01,1127.89,56.56,1128.99,54.12z"/>
<path fill="#4A0203" d="M728.92,61.92c0.39-0.13,1.16-0.38,1.55-0.51c1.8,1.13,3.601,2.33,5.05,3.92
	c4.591,4.92,10.091,8.9,15.881,12.3c0.899,1.44,1.979,2.8,2.569,4.42c-0.609,4.83-4.42,8.28-6.38,12.53
	c-1.21,2.71-2.38,5.49-2.87,8.43c-0.47,11.12,4.761,21.29,6.87,32c1.13,6.29,2.2,12.73,1.68,19.14c-1.079,4.65-6.22,6.18-9.46,9.03
	c-0.899,0.32-1.79,0.65-2.67,0.98c-1.68,0.66-3.34,1.34-5,2.03c-0.51,0.24-1.55,0.71-2.06,0.95c-7.771,3.1-13.1,10.26-21.05,13.03
	c-1.37-0.72-2.75-1.44-4.09-2.18c-0.82-0.14-2.45-0.41-3.271-0.55c-2.55,2.11-3.25,5.43-3.17,8.59c3.1,2.89,6.73,5.11,10.52,6.99
	c5.771,1.5,11.58,0.38,17.28-0.76c6.84-3.35,13.351-7.7,17.66-14.12c2.19-3.51,4.39-7.05,6-10.88c1.49,0.05,3.56-0.42,4.32,1.31
	c2.02,4.58,4.38,9.28,4.31,14.42c0.54,7.91,2.351,16.97-3.359,23.56c-6.45-0.64-12.9,0.58-18.94,2.74c-3.71,2.89-7.81,6.03-9.3,10.7
	c-1.101,2.26-0.13,4.76,0.14,7.1c1.43,1,2.82,2.06,4.18,3.17c2.21,0.08,4.431,0.13,6.66,0.09c1.29-0.54,2.62-1.05,3.94-1.55
	c5.18-2.68,8.859-7.3,11.78-12.22c0.569,0.46,1.159,0.92,1.76,1.38c2.33,5.48,0.479,11.3-0.13,16.92
	c-0.36,3.87-2.28,7.32-3.99,10.729c-1.35,2.19-4.37,2.08-6.561,1.521c-4.569-1-9.26-0.56-13.88-0.61
	c-3.54,1.771-7.359,4.381-8.13,8.541c-0.83,2.52,0.51,4.97,1.08,7.39c3.57,1.55,7.49,1.17,11.28,0.989
	c4.36-1.97,8.5-4.379,12.3-7.299c0.2,0.449,0.61,1.35,0.811,1.799c-1.091,4.86-2.171,9.86-4.83,14.15
	c-2.101,3.66-3.931,8.43-8.4,9.68c-2.08-0.76-3.83-2.16-5.74-3.229c-4.54-0.25-9.3-0.74-13.55,1.25c-0.26,0.479-0.78,1.44-1.04,1.92
	c0.18,2.83,1.271,5.44,2.9,7.74c3.149,1,6.529,1.3,9.609-0.171c1.721-0.77,3.46-1.449,5.23-2.1c0.189,5.68-3.34,10.471-6.34,14.971
	c-1.48,2.34-5.851,2.439-5.511,5.81c-0.22,6.761-0.449,14.56-6.26,19.149c-1,3.361,2.21,5.4,3.601,8.041
	c-0.08,3.42-4.45,2.89-6.74,4.17c-3.59,1.59-7.54,0.959-11.25,0.25c-0.54,1.43-1.09,2.859-1.62,4.3
	c-1.39-0.761-2.75-1.511-4.11-2.29c-1.66-0.79-3.42-1.301-5.26-1.109c-1.01,0.529-2.02,1.059-3.03,1.569
	c-2.279,0.33-4.58,0.59-6.79,1.229c-1.35,0.101-2.689,0.17-4.029,0.23c-7.17-2.07-13.9-5.65-18.94-11.26
	c-2.6,2.31-5.76,3.939-8.22,6.4c-3.46,4.02-6.59,8.31-9.97,12.389c-1.44,2.141-4.771,1.701-5.87,4.191
	c-3.19,4.969-6.65,9.779-9.66,14.85c-2.141,6.07-3.28,12.49-4.13,18.85c2.96,4.63,7.42,8.22,10.989,12.43
	c7.301,0.431,14.511,2.601,21.851,1.91c2.53-0.75,5.2-0.81,7.77-1.47c2.44-0.271,4.9-0.58,7.37-0.56c0.15,0.42,0.45,1.26,0.601,1.68
	c1.68-0.32,3.37-0.63,5.05-1.05c1.32-0.341,2.649-0.67,3.99-1.021c1.359-0.37,2.72-0.76,4.08-1.189c2.77,0.17,7.329-1.641,8.02,2.29
	c0.13-0.32,0.4-0.98,0.54-1.311c1.15-0.13,2.32-0.26,3.49-0.39c1.62-0.54,3.279-0.931,4.939-1.37c2.45-0.43,4.87-1.04,7.3-1.61
	l0.171,1.521c2.859-0.17,5.739-0.311,8.609-0.62c2.25-0.63,4.601-0.73,6.931-0.72c1.75,1.439,4.029,0.93,6.1,0.819
	c7.62-1.149,15.35-0.649,23.02-0.79c-0.01,0.54-0.02,1.61-0.029,2.141c4.02-0.04,8.06-0.04,12.09-0.04
	c0.109,0.699,0.32,2.08,0.42,2.779c4.06,0,8.12,0.141,12.189,0.11c0.08,0.49,0.24,1.47,0.32,1.95c1.29,0.22,2.59,0.47,3.891,0.77
	c2.22,0.17,4.46,0.301,6.699,0.391c0.15,0.46,0.471,1.37,0.62,1.83c2.26,0.46,4.5,0.989,6.76,1.47c1.46,0.37,2.931,0.61,4.44,0.88
	c0.35,0.88,0.71,1.78,1.08,2.68c1.479,0.101,2.97,0.2,4.479,0.33c1.19,0.3,2.391,0.59,3.61,0.86c0.14,0.47,0.41,1.41,0.55,1.88
	c3.17,0.83,6.37,1.6,9.59,2.31c1.08,2.421,3.721,2.801,6.03,3.37c3.69,1.12,6.4,4.511,10.641,3.57l0.22,0.31
	c1.5,0.591,2.96,1.271,4.43,1.971c1.92,0.34,3.87,0.63,5.82,0.899c1,0.74,1.99,1.48,3,2.24c1.3,0.311,2.62,0.63,3.93,1
	c1.03,0.32,2.07,0.65,3.12,0.99c2.07,0.46,4.99-0.311,6,2.12c2.52,0.2,5.05,0.319,7.59,0.41c0.19,0.97,0.4,1.949,0.62,2.93
	c4.91-0.101,9.91-0.23,14.7,1.09c0.189,0.43,0.56,1.29,0.74,1.72c1.79,0.12,3.59,0.24,5.399,0.41c4.61,1.24,9.55-0.17,14.07,1.53
	c3.74,0.47,7.54,0.26,11.31,0.32l0.12,0.649c4.24,0.21,8.46-0.12,12.59-1.1c0.15,0.479,0.44,1.43,0.58,1.91
	c-1.649,0.869-3.25,1.8-4.81,2.79c-2.13,1.09-4.44,1.689-6.74,2.27c-2.41,0.51-4.77,1.21-7.07,2.05c-3.01,0.2-6.05,0.19-8.989,0.91
	c-12.36,1.08-24.801,0.19-37.19,0.15c-2.56-0.78-5.27-0.86-7.85-1.48c-1.73-0.24-3.45-0.439-5.16-0.67
	c-2.311-0.52-4.65-0.729-6.98-0.99c-4.01-0.75-8.1-1-12.069-1.989c-3.301-0.761-6.641-1.37-9.95-2.061
	c-1.97-0.46-3.96-0.74-5.91-1.24c-1.36-0.26-2.72-0.489-4.06-0.729c-3.681-0.75-7.351-1.47-11.051-2.021
	c-1.649-0.42-3.319-0.739-4.979-1.06c-3.98-0.79-7.99-1.46-12.021-1.93c-2.29-0.591-4.67-0.681-6.989-0.91
	c-7.87-1.7-16-0.561-23.971-0.74c-6.239,0.36-12.59-0.47-18.729,0.81c-3.09,0.19-6.17,0.261-9.24,0.511
	c-2.979,0.72-6.05,0.72-9.08,0.88c-1.03,0.38-2.06,0.75-3.08,1.109c-1.21,0.46-2.43,0.891-3.63,1.36c-1.03,0.35-2.06,0.71-3.07,1.1
	c-0.54,0.11-1.64,0.341-2.18,0.461c-1.26,0.51-2.51,1-3.76,1.5c-1.01,0.31-2.01,0.64-2.99,0.989c-2.32,0.82-4.71,1.38-7.09,1.95
	c-3.36,0.6-6.7,1.311-10.03,2.01c-1.37,0.2-2.74,0.4-4.1,0.62c-5.891,1.42-11.83,3.141-17.94,2.92
	c-14.67-0.04-29.33,0.011-43.99-0.02c-6.72-0.07-13.449,0.189-20.14-0.49c-1.84-0.51-3.729-0.63-5.61-0.68
	c-1.1,2.739-4.06,2.08-6.26,1.39c-1.63-0.74-3.25-1.46-4.87-2.17c-2.899-1.11-5.949-3.31-9.08-1.62c-1.64,0.75-3.29,1.47-4.93,2.2
	c-0.39,0.06-1.149,0.189-1.54,0.25c-1.47-5.98-4.63-11.36-8.57-16.04c-2.59,0.81-5.279,1.03-7.97,0.88
	c-2.39-6-2.09-12.7-4.49-18.689c-2.55-1.561-5.489-2.41-7.92-4.141c-2.149-3.6,1.471-7.13,2.2-10.63c0.391-3.8,1.82-8.45-1.64-11.25
	c-0.67-0.11-2-0.319-2.66-0.431c-0.14-8.529,9.55-13.719,9.15-22.43c0.329-2.55-3.54-3.33-2.94-6.08c1.21-2.34,3.38-3.939,5.16-5.81
	c2.96-2.771,5.39-6.021,7.93-9.16c-1.1-0.93-2.189-1.85-3.3-2.75c-0.13-0.51-0.38-1.55-0.51-2.069c3.069-3.131,5.89-6.601,9.689-8.9
	c1.25-6.311-0.51-12.79,0.92-19.1c-3.699-1.57-2.31-6.121-3.05-9.26c3.09-3.461,6.351-6.82,9.91-9.801
	c1.29-6.29-3.82-11.47-6.89-16.439c-3.15-5.761-8.73-9.391-13.24-13.961c-2.23-2.459-5.5-3.319-8.53-4.319
	c-3.74-1.69-7.8-2.03-11.84-1.681c-1.19,2.761-2.3,5.75-5.01,7.4c-0.37-1.54-0.76-3.061-1.17-4.57c-4.391,2.791-7.99,6.61-11.99,9.9
	c-0.94,0.12-1.87,0.25-2.8,0.38c-0.63,4.29-4.75,6.181-7.67,8.771c-2.471,1.81-4.521,4.1-6.341,6.55
	c-4.46,5.96-9.619,11.44-13.029,18.12c-0.21,1.39-0.351,2.85-1.33,3.97c0.05,6.79-0.34,13.819,1.899,20.33
	c2.7,4.13,5.851,7.96,8.41,12.18c-7.01-3.86-14.04-7.95-19.649-13.729c-3.33-2.36-5.261-5.94-6.681-9.66
	c3.95-4.96,1.91-11.71,1.15-17.391c5.53-8.729,12.63-16.699,16.3-26.539c3.641-12.16,9.16-24.07,17.74-33.551
	c2.11-2.77,4.95-5.16,5.939-8.619c0.62-1.951,1.74-3.69,2.881-5.38c1.08-0.33,2.149-0.67,3.229-1.03c2.45-0.43,4.96-0.49,7.23,0.72
	c3.229-1.27,6.76-0.56,10.14-0.69c2.03,0.99,4.07,1.98,6.12,2.96c4.61,3.049,9.42,5.81,13.79,9.2
	c9.609,8.01,18.96,16.36,27.82,25.21c3.979,4.41,9.72,6.46,14.6,9.64c2.89,1.801,7,3.181,10.07,1.101
	c1.92-1.521,4.399-1.101,6.67-1.21c1.52-1.939,3.51-3.33,6.05-3.41c2.1-4,4.51-7.87,7.6-11.189c1.7-1.541,1.11-3.99,1.2-6.021
	c-0.39-6,0.28-11.979,0.88-17.94c0.45-4.7,4.12-8.279,5.07-12.819c0-3.97,0.47-8.44-2.58-11.51c-4.42-2.74-8.53-5.99-13.35-8.01
	c-1.811-0.84-3.58-1.73-5.311-2.68c-4.66-0.58-9.31-1.21-13.97-1.77c-6.771-1.37-14.311-3.52-20.811-0.12
	c-2.09,0.95-4.17,1.88-6.21,2.9c-3.58,1.15-7.25-0.24-10.71-1.2c-1.989-0.56-4.149-2.16-6.189-0.97
	c-5.16,2.73-8.12,8.35-13.471,10.84c-1.939,1.34-4.329,0.88-6.51,0.71c-1.49-1.38-3-2.75-4.66-3.91c-1.6,0.28-3.189,0.62-4.77,1.01
	c-0.08-1.22-0.15-2.45-0.22-3.67c-1.801-0.25-3.601-0.54-5.311-1.17c-2-0.12-4.01,0-5.97,0.35c-1.29,0.64-2.59,1.24-3.89,1.81
	c-0.2,2.07-0.141,4.15,0.34,6.19c1.109,0.78,2.21,1.59,3.3,2.43c1.43-0.01,2.86-0.03,4.3-0.08c0.93-0.23,2.771-0.7,3.7-0.93
	c-0.66,3.08-3.39,4.8-5.48,6.84c-0.88,0.49-1.75,0.99-2.619,1.49c-0.521,0.22-1.551,0.67-2.061,0.9c-2.03,2.15-3.61,5-6.64,5.85
	c-2.8,0.77-4.521,3.2-6.41,5.2c0.18,4.08-0.61,8.06-3.38,11.18c-1.07-0.91-2.11-1.819-3.16-2.729c-1.061,0.89-2.12,1.77-3.2,2.63
	c-0.49,0.51-1.46,1.53-1.95,2.03c-1.649-2.641-0.64-6.021-2.05-8.74c-1.439-3.141-4.729-5.09-5.56-8.54
	c-1.09-2.43-0.63-5.12-0.4-7.66c0.32,0.48,0.97,1.42,1.29,1.9c0.34-0.68,1.01-2.03,1.34-2.7c0.66,0.35,1.32,0.73,1.97,1.13
	c2.16-1.18,4.811-0.58,7.03-1.69c1.42-1.18,3.431-1.87,4.2-3.66c0.1-1.29,0.13-2.58,0.1-3.87c-2.47,1.53-4.899,3.13-7.6,4.21
	c-1.09,0.28-2.14,0.66-3.15,1.14c-1.39,0.18-2.76,0.34-4.14,0.48c-2.06,2.12-5.9,0.11-5.87-2.67c-0.28-4.76-0.8-9.49-1.63-14.18
	c2.61-4.36,4.79-9.66,9.62-12c0.47-1.19,0.93-2.37,1.39-3.56c0.601,0.05,1.8,0.16,2.4,0.21c0.47-1.08,0.939-2.16,1.42-3.24
	c1.12,0.03,2.25,0.06,3.39,0.08c0.971-1.91,3.011-2.46,4.86-3.12c0.51-0.82,1.03-1.64,1.55-2.46c2.13-1.21,4.23-2.48,6.36-3.71
	c0.64-0.47,1.3-0.93,1.96-1.4c3.49-2.02,6.71-4.52,10.439-6.11c1.74-0.56,3.44-1.22,5.141-1.88c1.38-0.52,2.76-1.05,4.16-1.56
	c1.029-0.33,2.069-0.65,3.13-0.95c2.239-1.1,4.51-2.16,6.84-3.08c5.39-2.06,10.35-5.36,14.21-9.65c1.58-0.09,3.18-0.17,4.77-0.25
	c0.58-1.23,1.17-2.45,1.761-3.67c0.62-0.04,1.85-0.1,2.46-0.13c1.02-1.74,1.399-4.66,4.09-4.19c0.53-1.22,1.07-2.45,1.609-3.67
	c1.021-0.03,2.051-0.06,3.091-0.09c1.14-1.65,2.33-3.28,3.52-4.89c0.65-0.01,1.93-0.03,2.58-0.04c0.97-1.46,1.97-2.9,2.97-4.34
	c0.58,0.05,1.74,0.16,2.33,0.21c0.58-1.64,0.851-3.57,2.41-4.64c1.18-0.14,2.38-0.29,3.58-0.44c1.5-2.29,2.57-5.24,5.42-6.16
	c3.08-1.05,4.61-4.99,8.14-4.8c3.48,0.22,4.58-3.81,6.811-5.72c1.87-0.15,3.74-0.25,5.62-0.35c2.399-2.78,5.24-5.15,8.439-6.98
	c0.521,0.31,1.551,0.93,2.07,1.23c3.07-1.4,5.16-4.14,8-5.88c1.74-0.43,3.57-0.3,5.37-0.38c3.399-1.67,6-4.98,9.59-6.03
	c0.56,0.3,1.68,0.89,2.24,1.19c3.17-1.729,6.13-4.02,9.8-4.56c4.88-1.06,9.91,0.01,14.83-0.72c2.3-0.51,4.6-0.89,6.97-1.1
	c-4.55,8.03-14.18,11.5-18.189,19.87c-0.69,5.95-0.9,12.01-0.061,17.95c1.66-1.06,3.32-2.15,4.92-3.31l0.811-0.36
	c1.8-1.35,3.72-2.51,5.71-3.58c2.069-0.77,4.109-1.64,6.17-2.49c2.81-1.37,5.71-2.57,8.72-3.46c2.73-0.38,5.4-1.11,8.11-1.62
	c3.29-0.81,6.609-1.5,9.92-2.27c4.09-1.07,8.01-2.71,12.109-3.76c1.311-0.47,2.61-0.93,3.931-1.4c1.689-0.87,3.39-1.71,5.109-2.54
	c0.921-0.46,1.86-0.92,2.801-1.37c1.409-0.78,2.92-1.53,3.85-2.93c2.68-3.58,6.71-6.88,6.62-11.77c-0.35-5.1-0.42-10.22-0.59-15.32
	C728.04,63.3,728.63,62.38,728.92,61.92z"/>
<path fill="#FEFEFE" d="M1101.15,151.33c1.68-0.62,3.399-1.22,5.08-1.9c3.109,2.21,5.63,5.48,5.01,9.54
	c-1.811,6.69-4.99,13-5.74,19.97c-2.1,4.58-4.85,8.87-7.37,13.23c-4.66,6-9.97,11.47-14.66,17.44c-2.319-0.15-4.64-0.15-6.939-0.01
	c-0.431-1.22-0.851-2.44-1.28-3.64c-2.14-0.9-4.17-2.01-6.16-3.16c-6.81-3.94-13.89-8-19.04-14.07c-1.81-1.5-0.12-3.53,0.41-5.2
	c1.28-0.38,2.57-0.78,3.88-1.15c0.42-1.95,0.87-3.9,1.33-5.84c1.86-0.49,3.73-0.98,5.67-1.22c1.79-0.71,3.311-1.91,4.7-3.24
	c-1.64-2.63-2.79-5.66-0.42-8.31c-1.01-0.89-2-1.77-2.99-2.65c-0.09-1.01-0.27-3.02-0.36-4.03c1.521,0.3,3.051,0.62,4.591,0.96
	c1.05,0.48,2.1,0.96,3.159,1.46c1.311-0.12,2.631-0.26,3.961-0.42c3.68-0.95,6.77-3.16,9.649-5.57c3.82,0.03,7.65-0.06,11.49-0.13
	c1.24-0.58,2.5-1.13,3.78-1.7C1099.46,151.6,1100.58,151.42,1101.15,151.33z"/>
<path fill="#FEFEFE" d="M1024.2,165.6c1.12-2.09,2.52-4.01,4.18-5.72c0.31,1.61,0.96,3.8-0.66,4.92
	C1026.86,165.89,1025.35,165.37,1024.2,165.6z"/>
<path fill="#FEFEFE" d="M1041.62,173.06c0.36-1.4,0.729-2.8,1.149-4.18c2.711,1.53,0.9,4.91,1.08,7.33
	c-0.939,0.25-1.85,0.52-2.75,0.8c-1.31,0.94-2.649,1.84-3.949,2.76c-1.721-1.2-3.511-2.34-5.54-2.92l1.1-0.76
	c-0.521-0.14-1.56-0.41-2.08-0.55c0,0.92,0,2.77,0,3.69c-1.02-1.3-2.03-2.64-2.93-4.01c-0.53,1.39-1.07,2.78-1.511,4.19
	c-0.379-1.13-0.689-2.28-0.939-3.43c1.4-0.83,2.79-1.7,4.14-2.63c0.101,0.54,0.3,1.62,0.4,2.16c1.11-0.88,1.97-2.59,3.66-2.02
	c0.13,0.83,0.37,2.479,0.489,3.3c1.86,0.16,3.061-0.58,3.601-2.22c0.42-0.02,1.25-0.05,1.67-0.07
	C1039.811,174.14,1041.02,173.42,1041.62,173.06z"/>
<path fill="#FEFEFE" d="M1030.62,180.31c0.72,1.7,1.19,3.5,1.43,5.34c-0.63-0.01-1.88-0.03-2.51-0.05
	C1029.84,183.83,1030.2,182.06,1030.62,180.31z"/>
<path fill="#FEFEFE" d="M1027.5,181.97c0.811,1.99,1.439,4.08,1.18,6.26C1026.66,186.69,1027.12,184.16,1027.5,181.97z"/>
<path fill="#FEFEFE" d="M1032.7,181.08c0.85,1.04,1.819,2.12,2.689,3.19c-0.51,0.86-1.02,1.72-1.5,2.58
	C1032.97,185.05,1032.49,183.11,1032.7,181.08z"/>
<path fill="#FEFEFE" d="M467.06,202.81c1.98-1.19,4.03-2.28,6.061-3.4c-0.17,0.92-0.33,1.84-0.47,2.77
	c-1.601,0.84-3.2,1.66-4.78,2.52C467.67,204.23,467.26,203.29,467.06,202.81z"/>
<path fill="#FEFEFE" d="M1356.061,221.18c1.229,0.71,2.42,1.5,3.619,2.32c-3.26,6.54-6.52,13.08-9.77,19.62
	c-2.85-3.75-5.9-7.36-8.51-11.28c-1.131-1.31,1.239-2.02,1.989-2.68C1347.64,226.55,1351.95,224.03,1356.061,221.18z"/>
<path fill="#FEFEFE" d="M990.8,232.109c1.72,0.621,3.41,1.32,5.11,2.021c2.85,1.39,5.57,3.05,8.34,4.62
	c0.58,0.311,1.75,0.92,2.33,1.23c-2.3,4.319-5.29,8.18-8.89,11.479c-1.311-1.64-2.82-3.14-3.921-4.93
	c-0.51-2.671-0.14-5.5-1.199-8.05C991.71,236.439,991,234.33,990.8,232.109z"/>
<path fill="#FEFEFE" d="M1380.63,246.1c3.03,8.08,5.851,16.23,8.86,24.32c1.01,3.061,3.43,5.25,5.58,7.53
	c3.109,3.05,4.96,7.14,6.39,11.19c0.479,3.709,0.15,7.469,0.19,11.199c9.029,11.6,18.35,22.971,27.489,34.48
	c2.511,3.24,3.561,7.289,5.11,11.029c8.57,22.33,17.54,44.51,26.41,66.721c1.6,4.109,3.63,8.13,4.279,12.54
	c1.961,11.63,3.95,23.26,5.91,34.89h-108.14c6.4-27.16,11.32-54.65,16.58-82.061c1.74-7.529,0.899-15.299,1.26-22.949
	c0.32-28.891,0.8-57.78,1.07-86.67c-0.64,0.01-1.92,0.029-2.56,0.039c0.909-5.029,2.119-10,3.189-15
	c-0.76-0.069-2.28-0.199-3.04-0.27C1379.5,250.73,1380.03,248.4,1380.63,246.1z"/>
<path fill="#4A0203" d="M289.22,248.24c0.14,0.369,0.42,1.1,0.55,1.46c2.25-0.32,4.45-0.841,6.68-1.261
	c-1.32,3.431-4.61,5.341-7.34,7.53c0.11,1.46,0.25,2.931,0.4,4.39c2.98,0.201,5.97,0.261,8.95,0.181c1.33-2.021,1.73-5.3,3.78-6.45
	c0.58,2.23,0.78,4.54,1.33,6.79c2.19-1.979,2.99-5.09,4.48-7.59c0.2,2.601,0.17,5.25,0.851,7.79c2.02,0.65,4.149,0.39,6.229,0.25
	c3.79-1.28,8.021-1.26,11.91-0.391c0.97,0.391,1.95,0.78,2.93,1.16c1.5,0.53,2.96,1.131,4.45,1.721
	c-1.33,1.96-3.439,3.08-5.57,3.949c-1.43,0.61-2.859,1.23-4.27,1.881c-2.91,3.77-5.59,7.77-7.38,12.209
	c2.92,3.051,5.81,6.15,8.56,9.361c4.11,4.93,9.931,7.979,14.29,12.639c2.8,3.65,4.851,7.801,7.34,11.66
	c1.46,2.11,1.521,4.74,1.32,7.201c-0.58-0.561-1.13-1.141-1.67-1.721c-0.94-0.439-1.87-0.891-2.79-1.34
	c-4.48-2.92-10.15-2.551-15.16-1.551c-1.54,0.621-3.1,1.23-4.67,1.781c-0.46,5.34-0.88,10.709-0.79,16.069
	c1.39,5.54,4.44,10.44,7.07,15.45c-4.29,0.22-8.851,1.029-12.891-0.92c-1.159,0.8-2.319,1.619-3.489,2.4
	c-1.301,4.539,1.52,8.629,3.27,12.6c-1.189,0.31-2.37,0.609-3.55,0.91c-1.95-0.9-4.1-0.95-6.19-1.09
	c-1.859,1.219-4,2.969-3.54,5.489c0.92,2.66,2.16,5.2,2.959,7.921c-2.31-0.15-4.609-0.301-6.919-0.451
	c-0.45,3.08-0.02,6.16,0.82,9.141c-1.16,0.061-2.32,0.119-3.47,0.189c-0.44,6.131,3.76,10.841,6.44,15.931l-1.96,0.31
	c1.16,1.84,2.45,3.601,3.82,5.3c1.73,0.471,3.44,1.051,5.15,1.62c1,0.37,2,0.74,3.01,1.11c0.05,1.26,0.109,2.53,0.17,3.81
	c1.52-0.26,3.03-0.55,4.54-0.88c3.2-0.31,6.42-0.49,9.64-0.66c0.12,0.73,0.38,2.19,0.51,2.92c1.721-0.609,3.44-1.26,5.171-1.869
	c1.899-0.521,3.81-0.94,5.71-1.48c1.38-0.17,2.77-0.32,4.159-0.47c0.16,0.88,0.49,2.63,0.66,3.5c0.8-0.24,2.4-0.71,3.2-0.95
	c1.66-0.31,3.35-0.59,4.95-1.14c3.439-0.011,7.37-1.511,10.41,0.71c4.95,0.319,9.92-0.011,14.88,0.159
	c1.399-0.199,2.1,1.29,3.12,1.931c1.229-0.22,2.46-0.47,3.689-0.74c3.57,0.23,8.36-0.06,10.13,3.771
	c1.341,0.1,2.681,0.189,4.03,0.289c3.101,0.65,6.2,1.28,9.29,1.95c0.4,0.84,0.811,1.681,1.22,2.53c2.12,0.04,4.261,0.1,6.33,0.67
	c1.351,0.7,2.73,1.34,4.141,1.96c0.409,0.82,0.83,1.64,1.26,2.47c2.86,0.12,5.68,0.601,8.49,1.17c0.67,0.931,1.35,1.86,2.029,2.811
	c2.66,0.07,5.341-0.061,7.99,0.31c0.23,0.471,0.69,1.4,0.93,1.86c2.83-0.05,5.671-0.14,8.521-0.24c0.13,0.561,0.41,1.66,0.54,2.21
	c3.16,0.71,7.3-1.37,9.74,1.24c2.46-0.09,4.92-0.21,7.39-0.22c2.68,2.149,6.05-0.24,9.07-0.17c0.529,1.91,2.54,1.239,3.91,1.43
	c5.1-0.19,10.189,0.08,15.22,0.91c-3.12,2.55-6.54,4.649-10.19,6.33c-1.93,0.399-3.89,0.529-5.83,0.63
	c0.051,0.46,0.15,1.37,0.2,1.83c-2.45,0.08-4.92,0.13-7.31,0.7c-3.83,0.699-7.73,0.63-11.601,0.439c-0.029,0.48-0.1,1.43-0.13,1.9
	c-4.26,0.04-8.52-0.021-12.77-0.12c-0.141,1.24-0.261,2.49-0.391,3.74c-1.92-1.24-3.87-2.431-5.89-3.49
	c-0.6-0.08-1.78-0.25-2.38-0.34c-1.58-0.54-3.19-1.011-4.78-1.5c-2.79-0.721-5.61-1.4-8.5-1.391c-0.04,1.841-0.06,3.681-0.07,5.53
	c-2.26-3.49-6.06-5.18-9.649-6.93c-1.66-0.33-3.34-0.57-5-0.771c-1.86-0.51-3.771-0.92-5.44-1.92c-0.41,1.79-0.79,3.59-1.18,5.391
	c-2.69-1.86-5.42-3.71-8.35-5.141c-4.141-0.21-8.29-0.05-12.431-0.229l-0.1-0.86c-3.15,0.46-6.32,0.96-9.33,2.03
	c-2.12,0.21-4.2-0.141-6.17-0.92c-1.29,0.609-2.58,1.229-3.851,1.87c-5,0.46-10.079-0.46-15.01,0.649
	c-3.62,0.59-7.2,1.44-10.819,2.04c-2.721,0.41-5.601,0.05-8.181,1.17c-4.66,0.62-9.38,0.29-14.06,0.36
	c-9.37-0.061-18.75,0.21-28.09-0.47c-5.14-0.46-10.13-1.58-15.08-2.99c-1.56-0.48-3.13-0.92-4.68-1.391
	c-1.75-0.43-3.49-0.909-5.22-1.399c-4.28-2.49-9.47-3.68-12.85-7.51c-5.55-5.101-9.24-12.07-10.85-19.391
	c-3.15-5.3-2.24-11.64-2.68-17.52c-0.13-6.09-1.03-12.76,2.32-18.221c1.13-1.779,0.23-3.93,0.34-5.879
	c2.28-8.66,7.75-15.9,12.27-23.48c1.29-2.03,2.43-4.32,4.61-5.551c0.05-1.31,0.09-2.609,0.13-3.909c3.57-2.931,3.37-7.9,4.05-12.07
	c0.9-4.13-1.82-7.68-3.19-11.351c-1.06-0.129-2.12-0.25-3.17-0.369c-2.82-0.5-5.78-0.43-8.38-1.801c-0.6,1.15-1.15,2.32-1.69,3.5
	c-1.11,2.701-0.03,5.641-0.3,8.471c-0.62,0.17-1.87,0.51-2.5,0.68c-1.93,1.57-3.66,3.36-5.09,5.4c-1.99,0.1-4.01,0.119-5.9,0.79
	c-0.61,0.1-1.81,0.31-2.41,0.42c-2.25,1.45-4.34,3.11-6.33,4.899c-1.44,0.041-2.87,0.08-4.3,0.101c-3.49-2.61-7.54-5.149-8.54-9.729
	c0.01-4.221-4.18-6.17-6.72-8.851c0.22-1.36,0.46-2.71,0.71-4.05c2.44,1.67,4.77,3.529,7.37,4.98c0.18-2.921-3.11-5.681-1.16-8.41
	c1.76-2.69,2.97-5.681,4.12-8.66c-0.4-0.51-1.2-1.53-1.6-2.041c0.76-0.52,1.53-1.039,2.3-1.56c2.26-4.3,4.37-8.729,7.32-12.62
	c3.39-3.289,7.62-5.57,11.13-8.729c2.95-2.7,5.8-5.521,8.35-8.601c2.81-3.51,6.76-5.779,10.16-8.63c1.93-1.2,3.88-2.39,5.85-3.52
	c2.48-1.55,5.06-2.931,7.75-4.06c1.97-0.791,3.92-1.621,5.82-2.551c0.55-0.05,1.66-0.15,2.21-0.199
	c0.87-0.931,1.75-1.841,2.64-2.761c2.47-0.26,4.86-0.989,7.18-1.84C284.35,250.57,287.8,250.96,289.22,248.24z"/>
<path fill="#FEFEFE" d="M228.35,297.51c1.24-0.01,2.49-0.02,3.73-0.02c-0.14,0.88-0.27,1.76-0.41,2.65
	c-2.11,1.409-4.17,3.039-6.67,3.689C225.83,301.58,227.12,299.55,228.35,297.51z"/>
<path fill="#FEFEFE" d="M220.75,304.6c0.61-0.05,1.81-0.149,2.42-0.209c-0.29,0.969-0.58,1.93-0.87,2.899
	c-1.12,0.08-2.25,0.149-3.37,0.229C219.53,306.54,220.14,305.57,220.75,304.6z"/>
<path fill="#E3E4E6" d="M570.95,314.38c1.24-0.11,2.2,0.841,3.26,1.351c1.22,0.75,2.47,1.43,3.75,2.109
	c1.31,0.45,2.64,0.891,3.95,1.391c1.16,0.449,2.33,0.93,3.5,1.399c2.01,2.101,4.06,4.16,6.09,6.25
	c-0.92,9.29-2.01,18.56-2.96,27.851c-1.54-0.01-3.08-0.021-4.61-0.021c3.561,5.479,1.15,12.11,2.63,18.101
	c1.301,5.14,1.53,10.699,4.341,15.33c1.659,3.58,4.819,7.029,3.55,11.26c1.38,0.029,2.76,0.069,4.149,0.119
	c0.021,0.771,0.061,2.311,0.08,3.08c1.54,0.021,3.08,0.04,4.63,0.051c1.82,1.55,3.57,3.22,5.641,4.46
	c1.05,0.21,2.12,0.449,3.189,0.689c1.88,0.601,3.82,0.96,5.75,1.44c2.471,0.17,4.95,0.52,7.301,1.359
	c-1.08,1.2-2.15,2.42-3.221,3.62c-4.529,0.07-8.859,1.46-13.12,2.851c-3.909-0.051-8.64,1.779-11.85-1.21
	c-2.11-1.71-2.48-4.63-3.58-6.971c-1.45-0.35-2.89-0.729-4.3-1.149c-2.72-0.271-5.47-0.23-8.16-0.66c-0.82-1.9-1.09-3.97-1.49-5.98
	c-1.67-9.55-5.55-18.51-9.279-27.399c-3.69-7.46-4.471-15.851-6.641-23.79c-2.29-8.09-2.33-16.561-3.45-24.84
	c-0.6-3.26,0.131-6.521,0.83-9.69c1.74,0.5,3.49,1,5.25,1.47c1.19,0.34,2.391,0.67,3.601,0.98
	C570.07,316.971,570.66,315.24,570.95,314.38z"/>
<path fill="#FEFEFE" d="M218.5,320.4c0.71-1.83,2.04-3.26,3.45-4.57c1.52-0.109,3.03-0.21,4.55-0.32c0.57,1.961,0.49,4-0.18,5.93
	c-1.92,0.061-3.84,0.11-5.76,0.131c-1.1,0.6-2.21,1.189-3.29,1.82c-0.55,0.029-1.64,0.09-2.18,0.109c0.04-0.42,0.12-1.27,0.15-1.7
	C216.33,321.35,217.42,320.88,218.5,320.4z"/>
<path fill="#FEFEFE" d="M290.63,330.59c1.63-0.99,3.49-1.16,5.34-0.73c4.57,2.33,4.53,8.24,2.33,12.23
	c-1.43,0.35-2.85,0.74-4.23,1.26c-0.99,0.07-1.97,0.131-2.96,0.19c-1.15-0.5-2.31-0.979-3.47-1.41c-1.77-1.989-2.87-4.55-1.97-7.22
	C287.17,333.3,288.98,332.04,290.63,330.59z"/>
<path fill="#FEFEFE" d="M212.91,334.6c1.35,0.051,2.7,0.19,4.04,0.371c0.33,0.35,0.99,1.029,1.32,1.369
	c-0.71,0.051-2.12,0.16-2.83,0.221l0.11-0.711C214.66,335.45,213.78,335.029,212.91,334.6z"/>
<path fill="#FEFEFE" d="M281.7,354.88c0.54-3.26,3.15-6.14,6.7-5.53c1.85,1.49,3.82,3.15,3.97,5.73c-0.56,1.54-1.39,2.97-2.13,4.439
	c-2.29-0.199-4.56-0.529-6.82-0.899C282.85,357.37,282.28,356.12,281.7,354.88z"/>
<path fill="#FEFEFE" d="M282.35,365.471c1.03,0.059,2.07,0.119,3.11,0.17c1.56,2.18,1.66,4.869,0.12,7.1
	c-1.1-0.09-3.31-0.26-4.41-0.34C281.17,370.029,281.28,367.63,282.35,365.471z"/>
<path fill="#4A0203" d="M77.17,415.23c2.9-1.921,5.45-4.301,8.2-6.41c0.62,1.51,1.23,3.029,1.85,4.54c2.52,0,5.04,0.029,7.56,0.05
	c0.69,1.02,1.38,2.03,2.08,3.06c4.73,0.36,8.29-3.069,11.66-5.87c0.54,2.301,1.26,4.561,2.26,6.71c2.14,0.091,4.28,0.2,6.42,0.311
	c0.36,0.53,1.06,1.61,1.42,2.149c3.28,0.19,6.27-1.06,9.01-2.739c0.37,1.43,0.74,2.87,1.11,4.31c1.42-0.01,2.83-0.02,4.25-0.02
	c0.61,1.06,1.21,2.13,1.82,3.21c2.93,0.029,5.88-0.08,8.69-0.95c0.2-0.35,0.59-1.04,0.79-1.38c0.58,1.359,1.16,2.72,1.74,4.09
	c2.32,0.8,4.64,1.61,6.97,2.41c0.06,0.68,0.2,2.04,0.26,2.72c3.34,0.12,6.84,0.6,9.92-1.07c0.56,3.471,3.85,3.91,6.74,4.381
	c0.26,0.93,0.52,1.869,0.79,2.81c2.62-0.1,5.84,0.81,7.58-1.76c2.87,2.18,6.23,3.55,9.67,4.55c1.68,0.11,3.38,0.24,5.07,0.38
	c0.26,0.47,0.78,1.41,1.04,1.88c2.59,0.32,5.18,0.67,7.79,0.87c0.23,0.44,0.67,1.31,0.89,1.74c0.57,0.149,1.73,0.45,2.3,0.6
	c3.14,1.63,6.68,1.82,10.14,1.99c-2.72,3.17-6.13,6.36-10.65,6.03c-0.69,0.51-1.38,1.02-2.06,1.54c-4.18-0.021-8.36,0.25-12.54,0.08
	c-3.59-0.29-7.5-2.061-10.9-0.03c-6.94-1.05-14.1-1.45-21.03-0.061c-5.49,0.101-10.93-1.189-16.45-1.04
	c-0.08,0.681-0.23,2.051-0.31,2.73c-2.78-0.61-5.43-1.63-8.16-2.37c-3.16-0.45-6.36-0.27-9.54-0.35c0.01,0.689,0.04,2.069,0.05,2.76
	c-3.02-0.68-5.86-2.01-8.9-2.59c-2.77-0.45-5.55-0.76-8.34-1.05c-0.19,0.6-0.57,1.79-0.76,2.38c-5.26-2.801-11.23-2.74-16.99-2.221
	c-0.19,1.24-0.38,2.48-0.57,3.73c-5.71-3.97-12.7-2.85-19.19-2.44c0.2,1.04,0.61,3.13,0.81,4.181c-0.88-0.271-2.65-0.82-3.53-1.09
	c-4.58-3.811-10.73-2.48-16.19-2.631c-1.36-0.55-2.72-1.08-4.08-1.63c-2.47,1.16-4.94,2.67-7.78,2.58
	c-6.62,0.25-13.29,0.03-19.86,1.09c-0.16,0.53-0.49,1.58-0.65,2.11c-1.84,0.14-3.68,0.34-5.52,0.5h-0.52
	c-1.87-0.11-3.73-0.24-5.6-0.35c-2.01-1.721-4.98-2.98-5.11-6.021c1.62-0.12,3.23-0.22,4.85-0.29c2.15-2.1,4.3-4.189,6.42-6.29
	c0.87,1.46,1.74,2.931,2.71,4.33c-0.15-1.8-0.89-3.439-1.75-5c0.52-1.45,0.99-2.92,1.47-4.37c2.34-1.85,4.53-3.88,6.51-6.109
	c5.11-1.391,10.44-2.83,14.54-6.36c3.39-3.021,2.33-8.35,5.5-11.53c1.83,1.25,3.51,2.721,5.37,3.931c2.64-1.83,5.47-3.381,8.48-4.49
	c0.16,0.479,0.5,1.439,0.66,1.92c0.94-0.41,1.89-0.811,2.84-1.19c1.92-2.66,2.94-6.42,6.04-7.949
	C67.58,413.96,72.4,415.59,77.17,415.23z"/>
<path fill="#FEFEFE" d="M790.87,427.54c1.5-0.04,3.01-0.04,4.54,0c2.09,2.08,5.96,3.17,5.62,6.76c-2.62,0.601-5.36,1.75-7.971,0.53
	c-3.39,0.09-6.369-1.58-7.5-4.85C787.35,429.21,789.12,428.4,790.87,427.54z"/>
<path fill="#FEFEFE" d="M62.52,433.84c1.37-2.08,3.5-3.39,5.61-4.609c1.14,1.779,2.8,3.51,2.48,5.81c-0.77,1.18-1.7,2.25-2.58,3.37
	c-1.5-0.71-3.01-1.41-4.52-2.09C63.27,435.7,62.77,434.46,62.52,433.84z"/>
<path fill="#FEFEFE" d="M102.34,432.02c1.22-0.779,2.42-1.579,3.62-2.38c0.6,0.48,1.2,0.971,1.8,1.46c0.16,1.9-0.91,3.29-2.29,4.431
	c-0.96-0.13-1.91-0.261-2.87-0.37C102.5,434.11,102.41,433.06,102.34,432.02z"/>
<path fill="#FEFEFE" d="M82.91,432.24c0.45-1.08,1.03-2.08,1.74-3c2.11-0.44,3.18,1.18,4.16,2.71c-0.82,1.62-2.19,2.78-3.69,3.75
	C84.33,434.59,83.15,433.64,82.91,432.24z"/>
<path fill="#FEFEFE" d="M42.2,435.95c1.21-1.46,2.45-2.891,3.69-4.32c0.79,0.021,2.37,0.07,3.15,0.09
	c0.36,0.54,1.07,1.641,1.42,2.19c-0.01,0.87-0.02,2.6-0.02,3.47c-0.63,0.72-1.26,1.44-1.89,2.17c-1.18,0.01-2.36,0.01-3.53,0
	C44.09,438.34,43.14,437.14,42.2,435.95z"/>
<path fill="#FEFEFE" d="M122.84,432.69c0.43-0.03,1.29-0.101,1.73-0.141c0.08,0.58,0.26,1.73,0.35,2.311
	c-0.34,0.399-1.02,1.199-1.35,1.6c-0.51,0.01-1.52,0.03-2.02,0.04c-0.23-0.64-0.69-1.93-0.91-2.58
	C121.19,433.61,122.29,433,122.84,432.69z"/>
<path fill="#FEFEFE" d="M138.73,437.03c0.74-0.471,1.47-0.94,2.19-1.41c0.5,0.77,1.01,1.55,1.52,2.33
	c-0.29,0.39-0.85,1.17-1.13,1.56c-0.96-0.02-1.91-0.04-2.86-0.06C138.54,438.64,138.63,437.83,138.73,437.03z"/>
<path fill="#FEFEFE" d="M158.64,440.57c0.45,0.05,1.34,0.17,1.78,0.22c-0.37,0.82-0.75,1.63-1.11,2.46
	c-0.44,0.01-1.32,0.02-1.76,0.03C157.92,442.37,158.28,441.47,158.64,440.57z"/>
<path fill="#FEFEFE" d="M835,440.83c2-0.53,3.99-1.09,6.03-1.49c1.229,1.16,2.43,2.351,3.63,3.561c-0.641,0.42-1.94,1.25-2.58,1.659
	C839.45,443.9,835.79,444.14,835,440.83z"/>
<path fill="#FEFEFE" d="M23.98,442.89c0.23-0.609,0.69-1.83,0.93-2.439c2.26-0.04,4.52-0.03,6.78,0.189
	c-0.35,1.681-0.8,3.341-1.27,5.011c-1.86,0.08-3.73,0.08-5.58-0.12C24.62,444.87,24.19,443.55,23.98,442.89z"/>
<path fill="#FEFEFE" d="M17.45,444.7c1.13-0.181,2.27-0.351,3.4-0.51c-0.12,1.369-0.28,2.75-0.45,4.13
	c-0.92,0.069-1.84,0.14-2.77,0.21C17.56,447.25,17.49,445.97,17.45,444.7z"/>
<path fill="#FEFEFE" d="M875.78,447.06c1.08-0.47,2.189-0.93,3.3-1.42c1.02,0.44,2.06,0.88,3.12,1.311
	c0.04,0.37,0.13,1.12,0.17,1.49c-2.3,0.109-4.601,0.199-6.89,0.17C875.56,448.23,875.7,447.45,875.78,447.06z"/>
<path fill="#FEFEFE" d="M38.08,456.3c2.84,0.09,5.31-1.42,7.78-2.58c1.36,0.55,2.72,1.08,4.08,1.63
	c5.46,0.15,11.61-1.18,16.19,2.631c0.3,0.51,0.92,1.52,1.23,2.02H12.05c1.84-0.16,3.68-0.36,5.52-0.5c0.16-0.53,0.49-1.58,0.65-2.11
	C24.79,456.33,31.46,456.55,38.08,456.3z"/>
<path fill="#A17C7C" d="M88.61,453.6c5.76-0.52,11.73-0.58,16.99,2.221c0.19-0.59,0.57-1.78,0.76-2.38c2.79,0.29,5.57,0.6,8.34,1.05
	c-3.22,0.359-7.34-0.891-9.6,2.109c-4.98-2.47-10.55-2.52-15.96-2.02c-0.09,1.41-0.19,2.83-0.28,4.25c-2.53-1.24-5-2.8-7.81-3.29
	c-3.8-0.33-7.6,0.13-11.39,0.3c0.08,1.38,0.12,2.771,0.15,4.16h-2.45c-0.31-0.5-0.93-1.51-1.23-2.02c0.88,0.27,2.65,0.819,3.53,1.09
	c-0.2-1.051-0.61-3.141-0.81-4.181c6.49-0.409,13.48-1.529,19.19,2.44C88.23,456.08,88.42,454.84,88.61,453.6z"/>
</svg>
