<?xml version="1.0" encoding="utf-8"?>
<!-- Generator: Adobe Illustrator 16.0.0, SVG Export Plug-In . SVG Version: 6.00 Build 0)  -->
<!DOCTYPE svg PUBLIC "-//W3C//DTD SVG 1.1//EN" "http://www.w3.org/Graphics/SVG/1.1/DTD/svg11.dtd">
<svg version="1.1" id="Layer_1" xmlns="http://www.w3.org/2000/svg" xmlns:xlink="http://www.w3.org/1999/xlink" x="0px" y="0px"
	 width="2048px" height="2048px" viewBox="0 0 2048 2048" enable-background="new 0 0 2048 2048" xml:space="preserve">
<g id="Layer_2">
	<rect x="-0.5" fill="none" width="2048" height="2048"/>
</g>
<g id="Layer_1_1_">
	<g id="negspace">
		<g>
			<g>
				<path fill="#560D0D" d="M833.609,501.549l227.771,0.52c131.289,0,196.941,71.749,196.941,215.234v154.104
					c0,67.217-26.998,114.754-80.972,142.62c53.972,27.865,80.972,75.399,80.972,142.617v154.623
					c0,143.148-65.652,214.72-196.941,214.72c-2.096,0-5.231,0.182-9.413,0.519H833.609v-512.478V501.549z M981.448,647.289v293.604
					h46.499c20.535,0,34.639-1.385,42.304-4.183c26.817-10.8,40.231-32.565,40.231-65.302V717.304
					c0-46.669-21.42-70.015-64.254-70.015H981.448z M981.448,1087.165v293.593h64.782c42.834,0,64.252-23.154,64.252-69.482V1156.65
					c0-32.732-13.414-54.332-40.231-64.782c-7.666-3.135-21.769-4.701-42.302-4.701L981.448,1087.165L981.448,1087.165z"/>
			</g>
			<polygon fill="#560D0D" points="1520.615,1014.028 1349.91,1078.703 1373.893,1037.707 755.605,1037.707 755.598,1037.727 
				731.338,1078.703 731.016,1078.64 571.314,1078.64 609.566,1014.028 571.314,949.419 731.016,949.419 731.338,949.355 
				755.598,990.33 755.605,990.354 1373.893,990.354 1349.91,949.355 			"/>
		</g>
	</g>
	<g id="star">
		<polygon fill="#560D0D" points="1024.148,148.299 1213.672,731.259 1825.23,731.259 1330.549,1090.759 1520.119,1673.861 
			1024.148,1313.787 528.18,1673.861 714.396,1096.05 221.768,731.259 834.625,731.259 		"/>
	</g>
	<g id="bow_x2F_arrow">
		<g id="arrow">
			<g>
				<g>
					<path fill="#E3E4E6" d="M811.936,493.544l227.771,0.517c131.289,0,196.938,71.752,196.938,215.237v154.104
						c0,67.219-26.996,114.755-80.97,142.619c53.97,27.864,80.97,75.4,80.97,142.616v154.623
						c0,143.15-65.648,214.723-196.938,214.723c-2.098,0-5.229,0.182-9.414,0.519H811.936v-512.479V493.544z M959.773,639.285
						V932.89h46.498c20.539,0,34.64-1.385,42.307-4.184c26.814-10.799,40.229-32.565,40.229-65.301V709.301
						c0-46.669-21.418-70.016-64.252-70.016H959.773L959.773,639.285z M959.773,1079.161v293.591h64.783
						c42.834,0,64.254-23.153,64.254-69.484v-154.623c0-32.731-13.418-54.333-40.232-64.785c-7.667-3.135-21.768-4.696-42.303-4.696
						L959.773,1079.161L959.773,1079.161z"/>
				</g>
				<polygon fill="#E3E4E6" points="1498.941,1006.024 1328.236,1070.698 1352.216,1029.703 733.932,1029.703 733.922,1029.723 
					709.663,1070.698 709.342,1070.636 549.641,1070.636 587.893,1006.024 549.641,941.415 709.342,941.415 709.663,941.352 
					733.922,982.327 733.932,982.348 1352.216,982.348 1328.236,941.352 				"/>
			</g>
		</g>
	</g>
</g>
</svg>
