<?xml version="1.0" encoding="utf-8"?>
<!-- Generator: Adobe Illustrator 16.0.0, SVG Export Plug-In . SVG Version: 6.00 Build 0)  -->
<!DOCTYPE svg PUBLIC "-//W3C//DTD SVG 1.1//EN" "http://www.w3.org/Graphics/SVG/1.1/DTD/svg11.dtd">
<svg version="1.1" id="Layer_1" xmlns="http://www.w3.org/2000/svg" xmlns:xlink="http://www.w3.org/1999/xlink" x="0px" y="0px"
	 width="900px" height="900px" viewBox="0 0 900 900" enable-background="new 0 0 900 900" xml:space="preserve">
<g id="Layer_1_1_">
	<path fill="#E3E4E6" d="M338.44,78.5h149.063c48.988,49.087,98.067,98.109,147.113,147.139c0.942,0.743,0.991,1.973,1.032,3.087
		c-0.033,58.334,0.018,116.684-0.024,175.027c-49.524,0.032-99.042,0.023-148.567,0c-0.041-33.294-0.008-66.606-0.008-99.901
		c-0.05-1.115-0.091-2.336-1.032-3.079c-24.229-24.206-48.45-48.419-72.641-72.649c-0.948-1.181-2.565-0.966-3.904-1.057
		c-23.668,0.058-47.346,0.049-71.014,0.008c-0.116-12.152,0.14-24.313-0.116-36.465c-3.252,2.815-6.158,5.994-9.229,9.007
		c-43.036,43.094-86.204,86.056-129.217,129.175c-1.511,1.502-2.897,3.169-4.63,4.433c-1.47,0.513-3.063,0.356-4.591,0.422
		c-21.563-0.188-43.127,0.149-64.69-0.174c5.036-5.736,10.724-10.847,16.033-16.329c65.062-65.079,130.14-130.148,195.211-195.21
		c1.337-1.156,1.188-3.004,1.238-4.598C338.415,104.389,338.448,91.445,338.44,78.5z"/>
	<path fill="#E3E4E6" d="M78.39,356.712c61.909,0.016,123.817-0.024,185.734,0.016c0.058,23.381-0.033,46.762,0.041,70.142
		c154.66,0.016,309.319,0.057,463.987-0.019c-0.043,15.207-0.166,30.431,0.057,45.638c7.189-6.588,13.804-13.787,20.846-20.54
		c0.792-0.942,2.84-2.254,1.205-3.435c-6.826-6.961-13.845-13.746-20.662-20.713c-1.957-1.684-1.455-4.425-1.535-6.696
		c0.172-21.455-0.149-42.921,0.164-64.367c30.381,30.38,60.769,60.752,91.142,91.14c1.37,0.917,1.256,2.443,0,3.41
		c-30.363,30.396-60.761,60.77-91.142,91.148c-0.297-23.098-0.024-46.205-0.132-69.313c-154.651-0.008-309.295-0.033-463.938,0.018
		c-0.058,23.099,0.025,46.198-0.033,69.307c-61.908,0.041-123.825,0.008-185.734,0.016v-46.404
		c46.43-0.165,92.859-0.073,139.288-0.049c-0.033-30.941-0.049-61.894,0.009-92.834c-46.429,0.008-92.867,0.107-139.296-0.05
		L78.39,356.712L78.39,356.712z"/>
	<path fill="#E3E4E6" d="M78.39,426.059c38.793,0.017,77.586-0.024,116.387,0.017c0.024,15.456,0.049,30.9-0.017,46.354
		c-8.52,0.265-17.04,0.041-25.56,0.115c-30.273-0.05-60.546,0.091-90.811-0.074L78.39,426.059L78.39,426.059z"/>
	<path fill="#E3E4E6" d="M487.057,496.247c49.525-0.031,99.043-0.023,148.567,0c0.042,58.344-0.009,116.693,0.024,175.036
		c0.256,3.129-2.988,4.688-4.748,6.785c-47.799,47.808-95.647,95.564-143.39,143.432H338.44
		c-0.008-13.233,0.008-26.459,0.008-39.692c0.405-3.409-2.938-5.233-4.902-7.422c-59.59-59.571-119.153-119.152-178.742-178.725
		c-9.552-9.768-19.533-19.13-28.82-29.134c21.844-0.314,43.688,0.008,65.541-0.165c1.577,0.106,3.5-0.206,4.673,1.139
		c25.84,25.881,51.712,51.746,77.577,77.603c21.638,21.316,42.813,43.104,64.567,64.295c0.248-12.159,0-24.32,0.116-36.481
		c21.737-0.041,43.465-0.008,65.202-0.008c2.915-0.066,5.878,0.29,8.759-0.28c2.04-1.536,3.658-3.542,5.481-5.301
		c22.703-22.694,45.39-45.413,68.108-68.092c0.95-0.761,1-1.98,1.041-3.078C487.049,562.854,487.016,529.551,487.057,496.247z"/>
</g>
</svg>
